<svg id="Layer_1" data-name="Layer 1" xmlns="http://www.w3.org/2000/svg" width="5in" height="5in" viewBox="0 0 360 360"><path d="M179.31,341.66c-84.22,0-152.75-68.52-152.75-152.75a152.54,152.54,0,0,1,93.23-140.7,17.49,17.49,0,1,1,13.64,32.22,117.75,117.75,0,1,0,91.7,0,17.5,17.5,0,1,1,13.64-32.23,152.52,152.52,0,0,1,93.28,140.73C332.05,273.14,263.53,341.66,179.31,341.66Z"/><path d="M179.31,156.58a17.5,17.5,0,0,1-17.5-17.5V30a17.5,17.5,0,1,1,35,0v109A17.51,17.51,0,0,1,179.31,156.58Z"/><path d="M159.64,225.71a30.79,30.79,0,0,1-2.46,12.77,18.58,18.58,0,0,1-7,8.32,19.23,19.23,0,0,1-28-8.25,29.71,29.71,0,0,1-2.58-12.39v-3.59a30.49,30.49,0,0,1,2.5-12.68,18.45,18.45,0,0,1,17.5-11.35,19.23,19.23,0,0,1,10.54,2.89,18.62,18.62,0,0,1,7,8.37,31,31,0,0,1,2.46,12.77Zm-6.53-3.21q0-8.85-3.55-13.58a11.73,11.73,0,0,0-9.95-4.74,11.58,11.58,0,0,0-9.79,4.74q-3.57,4.72-3.68,13.14v3.65q0,8.58,3.61,13.49a12.64,12.64,0,0,0,19.77.27q3.49-4.64,3.59-13.28Z"/><path d="M196.93,227H176v22h-6.56V199.23h30.83v5.36H176v17.06h20.89Z"/><path d="M235.62,227H214.74v22h-6.57V199.23H239v5.36H214.74v17.06h20.88Z"/><rect width="360" height="360" fill="none"/></svg>