<svg id="Layer_1" data-name="Layer 1" xmlns="http://www.w3.org/2000/svg" width="5in" height="5in" viewBox="0 0 360 360"><path d="M178.82,341.66c-84.22,0-152.74-68.52-152.74-152.75A152.53,152.53,0,0,1,119.3,48.21,17.5,17.5,0,1,1,133,80.43a117.75,117.75,0,1,0,91.7,0,17.5,17.5,0,1,1,13.63-32.23,152.53,152.53,0,0,1,93.29,140.73C331.57,273.14,263,341.66,178.82,341.66Z"/><path d="M178.82,156.58a17.51,17.51,0,0,1-17.5-17.5V30a17.5,17.5,0,1,1,35,0v109A17.5,17.5,0,0,1,178.82,156.58Z"/><path d="M173.87,225.71a30.63,30.63,0,0,1-2.47,12.77,18.56,18.56,0,0,1-7,8.32,19.23,19.23,0,0,1-28-8.25,29.71,29.71,0,0,1-2.58-12.39v-3.59a30.33,30.33,0,0,1,2.5-12.68,18.42,18.42,0,0,1,17.5-11.35,19.25,19.25,0,0,1,10.54,2.89,18.66,18.66,0,0,1,7,8.37,30.82,30.82,0,0,1,2.47,12.77Zm-6.53-3.21q0-8.85-3.56-13.58a12.65,12.65,0,0,0-19.74,0q-3.57,4.72-3.67,13.14v3.65q0,8.58,3.61,13.49a12.64,12.64,0,0,0,19.77.27q3.48-4.64,3.59-13.28Z"/><path d="M222,249h-6.6l-25.05-38.35V249h-6.6V199.23h6.6l25.12,38.52V199.23H222Z"/><rect width="360" height="360" fill="none"/></svg>